<?xml version="1.0" encoding="utf-8"?>
<!-- Generator: Adobe Illustrator 23.0.3, SVG Export Plug-In . SVG Version: 6.00 Build 0)  -->
<svg version="1.1" xmlns="http://www.w3.org/2000/svg" xmlns:xlink="http://www.w3.org/1999/xlink" x="0px" y="0px"
	 viewBox="0 0 539.9 258" style="enable-background:new 0 0 539.9 258;" xml:space="preserve">
<style type="text/css">
	.st0{fill:#A6A6A6;stroke:#A6A6A6;stroke-width:6.245100e-02;stroke-linejoin:round;stroke-miterlimit:10;}
	.st1{fill:#FFFFFF;stroke:#FFFFFF;stroke-width:6.245100e-02;stroke-linejoin:round;stroke-miterlimit:10;}
	.st2{fill-rule:evenodd;clip-rule:evenodd;fill:#A6A6A6;}
	.st3{fill-rule:evenodd;clip-rule:evenodd;fill:#FFFFFF;}
	.st4{fill:#FFFFFF;stroke:#A6A6A6;stroke-width:6.245100e-02;stroke-linejoin:round;stroke-miterlimit:10;}
	.st5{fill:none;stroke:#FFFFFF;stroke-width:30;stroke-linecap:round;stroke-linejoin:round;stroke-miterlimit:10;}
	.st6{fill:#FFFFFF;}
</style>
<g id="Laag_2">
</g>
<g id="Laag_1">
	<path class="st0" d="M53.9,190.5"/>
	<path class="st1" d="M14.1,167.3c0,0-1.3,6-1.3,24.1c0,11.7,0.1,46.4,0.1,46.4s20.6-27.8,33.3-41"/>
	<g>
		<path class="st0" d="M12.6,99.1c0-8.2,6.7-15,15-15c8.3,0,15,6.7,15,15l0,0V159"/>
		<path class="st0" d="M12.6,193.1"/>
	</g>
	<path class="st2" d="M335.2,181.4"/>
	<g>
		<polyline class="st3" points="354.8,181.4 359.4,181.4 359.4,140.1 321.5,140.1 321.5,140.1 321.5,181.4 323.2,181.4 		"/>
	</g>
	<line class="st2" x1="344.5" y1="181.4" x2="354.8" y2="181.4"/>
	<line class="st2" x1="335.2" y1="181.4" x2="344.5" y2="181.4"/>
	<polygon class="st3" points="323.5,101.1 323.5,142.1 357.4,142.1 357.4,101.1 323.5,101.1 	"/>
	<polygon class="st3" points="325.5,70.1 325.5,110.1 355.4,110.1 355.4,70.1 325.5,70.1 	"/>
	<polygon class="st3" points="328.5,73.1 340.5,57.1 352.4,73.1 	"/>
	<polygon class="st3" points="263,127.1 276,109.1 289,127.1 	"/>
	<polyline class="st3" points="331.2,201.1 359.4,184.1 363.2,177.1 323.2,177.1 289.5,177.1 289.5,171.1 287.5,171.1 287.5,127.1 
		289,127.1 276,109.1 263,127.1 264.5,127.1 264.5,145.1 256.5,139.1 250.4,143.8 240.5,133.1 230.5,141.9 230.5,169.1 228.5,169.1 
		228.5,177.9 238.6,183.4 	"/>
	<line class="st2" x1="329.7" y1="202.1" x2="331.2" y2="201.1"/>
	<line class="st2" x1="238.6" y1="183.4" x2="242.6" y2="185.6"/>
	<polygon class="st3" points="186.5,140.1 210.5,140.1 210.5,168.2 186.5,157.1 186.5,140.1 	"/>
	<path class="st0" d="M174.6,147.9"/>
	<line class="st0" x1="322.9" y1="202.6" x2="321" y2="202.5"/>
	<path class="st4" d="M338.7,193.4l-110.2-15.5l-2.9-1.4h0.1l-7.5-3.9l0.1,0.1l-6.9-3.9l-0.8-0.5v-28.1h-24v17c0,0,0.7,0.5,0.9,0.6
		c0,0,1.7,1.1,2.2,1.4c65.4,45.9,125.7,47,125.7,47h0.1l7.2,0.4l8-3.7l7.3-5.2"/>
	<path class="st4" d="M363.9,205c4.1-0.5,4-0.5,4-0.5s0.1,0,0.1,0c64.3-8.6,105.4-38.7,105.4-38.7c1-0.5-19.5,9.5-33.9,10.8
		c0,0,1.9-0.3,0,0c-0.6,0.1,0.6,2.2,0.6,2.2l-15.3,6.5l0.1-0.1l-15,5.4h0.1l-14.7,4.3l0.1-0.1l-14.3,3.4h0.1l-14,2.4h0.1
		c0,0-4.7-1-4.8,0.5l0,0C362.6,201.2,362.9,205.2,363.9,205z"/>
	<path class="st3" d="M320.1,206.5c0.9,0,1.9,0.1,2.9,0.1c0.9-0.6,22.8-6.8,38.4-20c0,0,6.2-6.7,6.3-8.5c0-2-2.5-0.7-4.4,0.4
		C362.3,179.1,320.1,206.5,320.1,206.5z"/>
	<path class="st2" d="M317.6,206.3c0.7,0.1,1.6,0.1,2.5,0.1"/>
	<path class="st2" d="M314.4,206c0.8,0.1,1.9,0.2,3.2,0.3"/>
	<path class="st2" d="M313.4,205.9c0.3,0,0.6,0.1,1,0.1"/>
	<path class="st3" d="M381.2,178.7c-4.1,4.9-20.9,13.4-18.3,24c12.6-1.7,30.4-4.7,39.5-7c13-3.5,18.9-5.4,24-8.1
		c0.6-0.9,14.3-6,14.3-6c-0.5-0.2-23.7-33.7-31.3-37.4c-0.2,32.7,0,0-0.2,32.7c0,0,0,0-20.1,0L381.2,178.7z"/>
	<path class="st4" d="M381.7,179.1l0.4,0.3c0,0-0.7-0.5-0.9-0.7c-2.2-2.5-4.9-3.1-7.6-2.9c-3,0.2-4.7,1.5-6,2.7
		c-0.2,0.2-7.4,1.9-7.4,1.9l-2.7-1.9c0,0,8.1-9.7,17.3-9.3c0,0,11.1,0.5,14.9,8.6C390.6,179.3,381.7,179.1,381.7,179.1z"/>
	<path class="st3" d="M302,178.1c-0.8-3.4-1.1-9.8-1.7-14.7c-13.6-5.5-6.1-11-5.5-12c-8.2-8.4,2-7.3,3.7-5c13-6.2,11.7,0.2,9,2.2
		c14,5.9,3.5,4.7,5.2,7c7.7,9.7-1,9.6-1.5,10.2c-3,5.9-3,2.2-4.5,3.2c0.5,3,0.2,7.5,1.5,9H302L302,178.1z"/>
	<path class="st3" d="M409.4,180.8c0.1-12.8,0-28.8,0.2-41.6H407l0.1-22.1l13.7-4.8l-0.1-2.3h6.9v2.3l14.8,5.2v22.2h-2.5
		c0,36.8,0,0,0,36.8l1.4,4.2H409.4L409.4,180.8z"/>
	<path class="st4" d="M210.5,140.1"/>
	<path class="st4" d="M186.5,140.1"/>
	<path class="st5" d="M510.5,128.3C458.1,40.5,263-56.5,29.1,193.1"/>
	<line class="st5" x1="27.8" y1="99.2" x2="27.8" y2="194.5"/>
	<g>
		<g>
			<path class="st6" d="M24.4,34.6c37.5,55.3,81.5,107,135.9,146.4c37.7,27.3,81.1,47.9,127.1,56.1c37,6.6,74.7,5.6,111.3-2.7
				c27.9-6.3,54.9-16.9,80.1-30.4c13.5-7.3,26.5-15.6,38.8-24.9c0.5-0.4,1-0.8,1.6-1.2c4.8-3.7,7.3-9.7,4-15.4
				c-2.8-4.8-10.5-7.7-15.4-4c-10.3,7.9-21.1,15.1-32.3,21.6c-10.2,5.9-20.6,11.2-31.4,15.9c-1.4,0.6-2.9,1.2-4.3,1.8
				c1.9-0.8,1.4-0.6,0,0c-1,0.4-1.9,0.8-2.9,1.2c-3.3,1.3-6.6,2.5-9.9,3.7c-6.9,2.5-13.8,4.7-20.9,6.6c-7.6,2.1-15.3,3.9-23.1,5.4
				c-3.9,0.7-7.8,1.4-11.8,2c-1.1,0.2-2.2,0.3-3.3,0.5c2.3-0.3,0.4-0.1-0.8,0.1c-2.1,0.2-4.2,0.5-6.4,0.7c-18,1.7-36.2,1.5-54.1-0.5
				c-1.1-0.1-2.2-0.3-3.3-0.4c-2.5-0.3,0.5,0.1-1.4-0.2c-2.4-0.4-4.8-0.7-7.2-1.1c-4.9-0.9-9.8-1.8-14.7-3
				c-10.2-2.4-20.2-5.3-30.1-8.8c-2.4-0.9-4.8-1.7-7.2-2.7c-1.2-0.5-2.4-0.9-3.6-1.4c-0.6-0.3-3.8-1.6-2.5-1
				c-5.3-2.2-10.5-4.6-15.6-7.2c-10.9-5.4-21.5-11.4-31.8-18c-50.8-32.4-93.2-78-128.9-126.7c-5.7-7.8-11.2-15.7-16.7-23.7
				c-3.4-5-9.9-7.2-15.4-4C23.5,22.1,21,29.5,24.4,34.6L24.4,34.6z"/>
		</g>
	</g>
</g>
</svg>
